solid OpenSCAD_Model
  facet normal -1 0 0
    outer loop
      vertex -0.5 -0.207107 -0.5
      vertex -0.5 0.5 0.207107
      vertex -0.5 0.5 -0.5
    endloop
  endfacet
  facet normal -1 -0 0
    outer loop
      vertex -0.5 0.5 0.207107
      vertex -0.5 -0.207107 -0.5
      vertex -0.5 0.292893 0.414214
    endloop
  endfacet
  facet normal -1 0 0
    outer loop
      vertex -0.5 0.292893 0.414214
      vertex -0.5 -0.207107 -0.5
      vertex -0.5 -0.414214 -0.292893
    endloop
  endfacet
  facet normal 0 0 1
    outer loop
      vertex 0.0973765 0.207108 0.5
      vertex 0.5 -0.5 0.5
      vertex 0.5 0.207107 0.5
    endloop
  endfacet
  facet normal 0 0 1
    outer loop
      vertex 0.0973765 0.207108 0.5
      vertex -0.28033 -0.5 0.5
      vertex 0.5 -0.5 0.5
    endloop
  endfacet
  facet normal 0 -0 1
    outer loop
      vertex -0.28033 -0.5 0.5
      vertex 0.0973765 0.207108 0.5
      vertex -0.457107 0.207107 0.5
    endloop
  endfacet
  facet normal 1 0 0
    outer loop
      vertex 0.5 0.207107 0.5
      vertex 0.5 -0.292893 -0.414214
      vertex 0.5 0.414214 0.292893
    endloop
  endfacet
  facet normal 1 0 0
    outer loop
      vertex 0.5 -0.5 -0.207107
      vertex 0.5 0.207107 0.5
      vertex 0.5 -0.5 0.5
    endloop
  endfacet
  facet normal 1 0 0
    outer loop
      vertex 0.5 0.207107 0.5
      vertex 0.5 -0.5 -0.207107
      vertex 0.5 -0.292893 -0.414214
    endloop
  endfacet
  facet normal 0 0 -1
    outer loop
      vertex -0.0973765 -0.207108 -0.5
      vertex 0.28033 0.5 -0.5
      vertex 0.457107 -0.207107 -0.5
    endloop
  endfacet
  facet normal 0 0 -1
    outer loop
      vertex -0.5 0.5 -0.5
      vertex -0.0973765 -0.207108 -0.5
      vertex -0.5 -0.207107 -0.5
    endloop
  endfacet
  facet normal 0 0 -1
    outer loop
      vertex -0.0973765 -0.207108 -0.5
      vertex -0.5 0.5 -0.5
      vertex 0.28033 0.5 -0.5
    endloop
  endfacet
  facet normal 0 -1 0
    outer loop
      vertex 0.0973765 -0.5 -0.207108
      vertex -0.28033 -0.5 0.5
      vertex -0.457107 -0.5 -0.207107
    endloop
  endfacet
  facet normal 0 -1 0
    outer loop
      vertex -0.28033 -0.5 0.5
      vertex 0.0973765 -0.5 -0.207108
      vertex 0.5 -0.5 0.5
    endloop
  endfacet
  facet normal 0 -1 -0
    outer loop
      vertex 0.5 -0.5 0.5
      vertex 0.0973765 -0.5 -0.207108
      vertex 0.5 -0.5 -0.207107
    endloop
  endfacet
  facet normal 0 1 -0
    outer loop
      vertex 0.28033 0.5 -0.5
      vertex -0.0973765 0.5 0.207108
      vertex 0.457107 0.5 0.207107
    endloop
  endfacet
  facet normal 0 1 0
    outer loop
      vertex -0.5 0.5 -0.5
      vertex -0.0973765 0.5 0.207108
      vertex 0.28033 0.5 -0.5
    endloop
  endfacet
  facet normal 0 1 0
    outer loop
      vertex -0.0973765 0.5 0.207108
      vertex -0.5 0.5 -0.5
      vertex -0.5 0.5 0.207107
    endloop
  endfacet
  facet normal -0.942809 -0.235702 0.235702
    outer loop
      vertex -0.5 -0.414214 -0.292893
      vertex -0.457107 0.207107 0.5
      vertex -0.5 0.292893 0.414214
    endloop
  endfacet
  facet normal -0.942809 -0.235702 0.235702
    outer loop
      vertex -0.457107 -0.5 -0.207107
      vertex -0.457107 0.207107 0.5
      vertex -0.5 -0.414214 -0.292893
    endloop
  endfacet
  facet normal -0.942809 -0.235702 0.235702
    outer loop
      vertex -0.457107 0.207107 0.5
      vertex -0.457107 -0.5 -0.207107
      vertex -0.28033 -0.5 0.5
    endloop
  endfacet
  facet normal 6.01913e-07 -0.707107 -0.707107
    outer loop
      vertex 0.0973765 -0.5 -0.207108
      vertex 0.5 -0.292893 -0.414214
      vertex 0.5 -0.5 -0.207107
    endloop
  endfacet
  facet normal 6.66121e-07 -0.707107 -0.707107
    outer loop
      vertex 0.5 -0.292893 -0.414214
      vertex 0.0973765 -0.5 -0.207108
      vertex 0.457107 -0.207107 -0.5
    endloop
  endfacet
  facet normal 6.08088e-07 -0.707107 -0.707107
    outer loop
      vertex 0.457107 -0.207107 -0.5
      vertex 0.0973765 -0.5 -0.207108
      vertex -0.0973765 -0.207108 -0.5
    endloop
  endfacet
  facet normal -6.66121e-07 -0.707107 -0.707107
    outer loop
      vertex -0.0973765 -0.207108 -0.5
      vertex -0.457107 -0.5 -0.207107
      vertex -0.5 -0.414214 -0.292893
    endloop
  endfacet
  facet normal -6.01913e-07 -0.707107 -0.707107
    outer loop
      vertex -0.0973765 -0.207108 -0.5
      vertex -0.5 -0.414214 -0.292893
      vertex -0.5 -0.207107 -0.5
    endloop
  endfacet
  facet normal -6.08088e-07 -0.707107 -0.707107
    outer loop
      vertex -0.457107 -0.5 -0.207107
      vertex -0.0973765 -0.207108 -0.5
      vertex 0.0973765 -0.5 -0.207108
    endloop
  endfacet
  facet normal 6.01913e-07 0.707107 0.707107
    outer loop
      vertex 0.5 0.414214 0.292893
      vertex 0.0973765 0.207108 0.5
      vertex 0.5 0.207107 0.5
    endloop
  endfacet
  facet normal 6.66121e-07 0.707107 0.707107
    outer loop
      vertex 0.457107 0.5 0.207107
      vertex 0.0973765 0.207108 0.5
      vertex 0.5 0.414214 0.292893
    endloop
  endfacet
  facet normal 6.08088e-07 0.707107 0.707107
    outer loop
      vertex 0.0973765 0.207108 0.5
      vertex 0.457107 0.5 0.207107
      vertex -0.0973765 0.5 0.207108
    endloop
  endfacet
  facet normal -6.08088e-07 0.707107 0.707107
    outer loop
      vertex -0.0973765 0.5 0.207108
      vertex -0.457107 0.207107 0.5
      vertex 0.0973765 0.207108 0.5
    endloop
  endfacet
  facet normal -6.01913e-07 0.707107 0.707107
    outer loop
      vertex -0.5 0.292893 0.414214
      vertex -0.0973765 0.5 0.207108
      vertex -0.5 0.5 0.207107
    endloop
  endfacet
  facet normal -6.66121e-07 0.707107 0.707107
    outer loop
      vertex -0.0973765 0.5 0.207108
      vertex -0.5 0.292893 0.414214
      vertex -0.457107 0.207107 0.5
    endloop
  endfacet
  facet normal 0.942809 0.235702 -0.235702
    outer loop
      vertex 0.457107 -0.207107 -0.5
      vertex 0.457107 0.5 0.207107
      vertex 0.5 0.414214 0.292893
    endloop
  endfacet
  facet normal 0.942809 0.235702 -0.235702
    outer loop
      vertex 0.457107 0.5 0.207107
      vertex 0.457107 -0.207107 -0.5
      vertex 0.28033 0.5 -0.5
    endloop
  endfacet
  facet normal 0.942809 0.235702 -0.235702
    outer loop
      vertex 0.457107 -0.207107 -0.5
      vertex 0.5 0.414214 0.292893
      vertex 0.5 -0.292893 -0.414214
    endloop
  endfacet
endsolid OpenSCAD_Model
