solid OpenSCAD_Model
  facet normal -1 0 0
    outer loop
      vertex -0.5 -0.214178 -0.5
      vertex -0.5 -0.5 -0.5
      vertex -0.5 -0.428356 -0.285822
    endloop
  endfacet
  facet normal -1 0 0
    outer loop
      vertex -0.5 0.285822 0.428356
      vertex -0.5 0.5 0.5
      vertex -0.5 0.5 0.214178
    endloop
  endfacet
  facet normal -1 0 0
    outer loop
      vertex -0.5 0.285822 0.428356
      vertex -0.5 -0.5 0.5
      vertex -0.5 0.5 0.5
    endloop
  endfacet
  facet normal -1 0 0
    outer loop
      vertex -0.5 -0.428356 -0.285822
      vertex -0.5 -0.5 0.5
      vertex -0.5 0.285822 0.428356
    endloop
  endfacet
  facet normal -1 0 0
    outer loop
      vertex -0.5 -0.5 0.5
      vertex -0.5 -0.428356 -0.285822
      vertex -0.5 -0.5 -0.5
    endloop
  endfacet
  facet normal 0 0 1
    outer loop
      vertex 0.5 0.5 0.5
      vertex 0.0952703 0.214178 0.5
      vertex 0.5 0.214178 0.5
    endloop
  endfacet
  facet normal -0 0 1
    outer loop
      vertex -0.5 0.5 0.5
      vertex 0.0952703 0.214178 0.5
      vertex 0.5 0.5 0.5
    endloop
  endfacet
  facet normal 0 0 1
    outer loop
      vertex 0.0952703 0.214178 0.5
      vertex -0.5 0.5 0.5
      vertex -0.464178 0.214178 0.5
    endloop
  endfacet
  facet normal 0 0 1
    outer loop
      vertex -0.464178 0.214178 0.5
      vertex -0.5 -0.5 0.5
      vertex -0.285633 -0.5 0.5
    endloop
  endfacet
  facet normal 0 0 1
    outer loop
      vertex -0.5 -0.5 0.5
      vertex -0.464178 0.214178 0.5
      vertex -0.5 0.5 0.5
    endloop
  endfacet
  facet normal 1 0 0
    outer loop
      vertex 0.5 0.5 0.5
      vertex 0.5 0.428356 0.285822
      vertex 0.5 0.5 -0.5
    endloop
  endfacet
  facet normal 1 0 -0
    outer loop
      vertex 0.5 0.428356 0.285822
      vertex 0.5 0.5 0.5
      vertex 0.5 0.214178 0.5
    endloop
  endfacet
  facet normal 1 -0 0
    outer loop
      vertex 0.5 -0.285822 -0.428356
      vertex 0.5 0.5 -0.5
      vertex 0.5 0.428356 0.285822
    endloop
  endfacet
  facet normal 1 0 0
    outer loop
      vertex 0.5 -0.285822 -0.428356
      vertex 0.5 -0.5 -0.5
      vertex 0.5 0.5 -0.5
    endloop
  endfacet
  facet normal 1 0 0
    outer loop
      vertex 0.5 -0.5 -0.5
      vertex 0.5 -0.285822 -0.428356
      vertex 0.5 -0.5 -0.214178
    endloop
  endfacet
  facet normal 0 1 0
    outer loop
      vertex 0.5 0.5 0.5
      vertex -0.0952703 0.5 0.214178
      vertex -0.5 0.5 0.5
    endloop
  endfacet
  facet normal 0 1 0
    outer loop
      vertex 0.5 0.5 0.5
      vertex 0.464178 0.5 0.214178
      vertex -0.0952703 0.5 0.214178
    endloop
  endfacet
  facet normal 0 1 -0
    outer loop
      vertex 0.5 0.5 -0.5
      vertex 0.464178 0.5 0.214178
      vertex 0.5 0.5 0.5
    endloop
  endfacet
  facet normal 0 1 0
    outer loop
      vertex 0.464178 0.5 0.214178
      vertex 0.5 0.5 -0.5
      vertex 0.285633 0.5 -0.5
    endloop
  endfacet
  facet normal 0 1 0
    outer loop
      vertex -0.5 0.5 0.5
      vertex -0.0952703 0.5 0.214178
      vertex -0.5 0.5 0.214178
    endloop
  endfacet
  facet normal 0 0 -1
    outer loop
      vertex 0.5 -0.5 -0.5
      vertex 0.464178 -0.214178 -0.5
      vertex 0.5 0.5 -0.5
    endloop
  endfacet
  facet normal 0 0 -1
    outer loop
      vertex 0.5 -0.5 -0.5
      vertex -0.0952703 -0.214178 -0.5
      vertex 0.464178 -0.214178 -0.5
    endloop
  endfacet
  facet normal 0 0 -1
    outer loop
      vertex -0.5 -0.5 -0.5
      vertex -0.0952703 -0.214178 -0.5
      vertex 0.5 -0.5 -0.5
    endloop
  endfacet
  facet normal -0 0 -1
    outer loop
      vertex -0.0952703 -0.214178 -0.5
      vertex -0.5 -0.5 -0.5
      vertex -0.5 -0.214178 -0.5
    endloop
  endfacet
  facet normal -0 0 -1
    outer loop
      vertex 0.5 0.5 -0.5
      vertex 0.464178 -0.214178 -0.5
      vertex 0.285633 0.5 -0.5
    endloop
  endfacet
  facet normal 0 -1 0
    outer loop
      vertex -0.5 -0.5 0.5
      vertex -0.464178 -0.5 -0.214178
      vertex -0.285633 -0.5 0.5
    endloop
  endfacet
  facet normal 0 -1 -0
    outer loop
      vertex -0.464178 -0.5 -0.214178
      vertex -0.5 -0.5 -0.5
      vertex 0.0952703 -0.5 -0.214178
    endloop
  endfacet
  facet normal 0 -1 0
    outer loop
      vertex -0.5 -0.5 -0.5
      vertex -0.464178 -0.5 -0.214178
      vertex -0.5 -0.5 0.5
    endloop
  endfacet
  facet normal 0 -1 0
    outer loop
      vertex 0.5 -0.5 -0.5
      vertex 0.0952703 -0.5 -0.214178
      vertex -0.5 -0.5 -0.5
    endloop
  endfacet
  facet normal 0 -1 0
    outer loop
      vertex 0.0952703 -0.5 -0.214178
      vertex 0.5 -0.5 -0.5
      vertex 0.5 -0.5 -0.214178
    endloop
  endfacet
  facet normal 0.942809 0.235702 -0.235702
    outer loop
      vertex -0.464178 0.214178 0.5
      vertex -0.5 -0.428356 -0.285822
      vertex -0.5 0.285822 0.428356
    endloop
  endfacet
  facet normal 0.942809 0.235702 -0.235702
    outer loop
      vertex -0.464178 -0.5 -0.214178
      vertex -0.464178 0.214178 0.5
      vertex -0.285633 -0.5 0.5
    endloop
  endfacet
  facet normal 0.942809 0.235702 -0.235702
    outer loop
      vertex -0.464178 0.214178 0.5
      vertex -0.464178 -0.5 -0.214178
      vertex -0.5 -0.428356 -0.285822
    endloop
  endfacet
  facet normal -6.58778e-07 0.707107 0.707107
    outer loop
      vertex 0.0952703 -0.5 -0.214178
      vertex 0.5 -0.285822 -0.428356
      vertex 0.464178 -0.214178 -0.5
    endloop
  endfacet
  facet normal -5.98781e-07 0.707107 0.707107
    outer loop
      vertex 0.5 -0.285822 -0.428356
      vertex 0.0952703 -0.5 -0.214178
      vertex 0.5 -0.5 -0.214178
    endloop
  endfacet
  facet normal -6.02692e-07 0.707107 0.707107
    outer loop
      vertex 0.0952703 -0.5 -0.214178
      vertex 0.464178 -0.214178 -0.5
      vertex -0.0952703 -0.214178 -0.5
    endloop
  endfacet
  facet normal 6.02692e-07 0.707107 0.707107
    outer loop
      vertex -0.0952703 -0.214178 -0.5
      vertex -0.464178 -0.5 -0.214178
      vertex 0.0952703 -0.5 -0.214178
    endloop
  endfacet
  facet normal 6.58778e-07 0.707107 0.707107
    outer loop
      vertex -0.464178 -0.5 -0.214178
      vertex -0.0952703 -0.214178 -0.5
      vertex -0.5 -0.428356 -0.285822
    endloop
  endfacet
  facet normal 5.98781e-07 0.707107 0.707107
    outer loop
      vertex -0.5 -0.428356 -0.285822
      vertex -0.0952703 -0.214178 -0.5
      vertex -0.5 -0.214178 -0.5
    endloop
  endfacet
  facet normal -5.98781e-07 -0.707107 -0.707107
    outer loop
      vertex 0.0952703 0.214178 0.5
      vertex 0.5 0.428356 0.285822
      vertex 0.5 0.214178 0.5
    endloop
  endfacet
  facet normal -6.02692e-07 -0.707107 -0.707107
    outer loop
      vertex 0.464178 0.5 0.214178
      vertex 0.0952703 0.214178 0.5
      vertex -0.0952703 0.5 0.214178
    endloop
  endfacet
  facet normal -6.58778e-07 -0.707107 -0.707107
    outer loop
      vertex 0.0952703 0.214178 0.5
      vertex 0.464178 0.5 0.214178
      vertex 0.5 0.428356 0.285822
    endloop
  endfacet
  facet normal 6.02692e-07 -0.707107 -0.707107
    outer loop
      vertex -0.464178 0.214178 0.5
      vertex -0.0952703 0.5 0.214178
      vertex 0.0952703 0.214178 0.5
    endloop
  endfacet
  facet normal 6.58778e-07 -0.707107 -0.707107
    outer loop
      vertex -0.5 0.285822 0.428356
      vertex -0.0952703 0.5 0.214178
      vertex -0.464178 0.214178 0.5
    endloop
  endfacet
  facet normal 5.98781e-07 -0.707107 -0.707107
    outer loop
      vertex -0.0952703 0.5 0.214178
      vertex -0.5 0.285822 0.428356
      vertex -0.5 0.5 0.214178
    endloop
  endfacet
  facet normal -0.942809 -0.235702 0.235702
    outer loop
      vertex 0.464178 -0.214178 -0.5
      vertex 0.464178 0.5 0.214178
      vertex 0.285633 0.5 -0.5
    endloop
  endfacet
  facet normal -0.942809 -0.235702 0.235702
    outer loop
      vertex 0.464178 0.5 0.214178
      vertex 0.464178 -0.214178 -0.5
      vertex 0.5 0.428356 0.285822
    endloop
  endfacet
  facet normal -0.942809 -0.235702 0.235702
    outer loop
      vertex 0.5 0.428356 0.285822
      vertex 0.464178 -0.214178 -0.5
      vertex 0.5 -0.285822 -0.428356
    endloop
  endfacet
endsolid OpenSCAD_Model
